<mxfile host="app.diagrams.net" agent="Mozilla/5.0 (X11; Linux x86_64) AppleWebKit/537.36 (KHTML, like Gecko) Chrome/131.0.0.0 Safari/537.36" version="25.0.3">
  <diagram name="Page-1" id="k94swzblTTAUHS3Mp7FQ">
    <mxGraphModel dx="880" dy="1306" grid="1" gridSize="10" guides="1" tooltips="1" connect="1" arrows="1" fold="1" page="1" pageScale="1" pageWidth="1169" pageHeight="827" math="0" shadow="0">
      <root>
        <mxCell id="0" />
        <mxCell id="1" parent="0" />
        <mxCell id="0eOz52TX7NUzQkUNuKNN-15" value="&lt;font style=&quot;font-size: 24px;&quot;&gt;Kubernetes Cluster&lt;/font&gt;" style="rounded=1;whiteSpace=wrap;html=1;verticalAlign=top;" parent="1" vertex="1">
          <mxGeometry x="56" y="31.5" width="2180" height="470" as="geometry" />
        </mxCell>
        <mxCell id="0eOz52TX7NUzQkUNuKNN-13" value="&lt;font style=&quot;font-size: 14px;&quot;&gt;Node_Trading&lt;/font&gt;&lt;div&gt;&lt;font style=&quot;font-size: 14px;&quot;&gt;(Machine4)&lt;/font&gt;&lt;/div&gt;" style="shape=hexagon;perimeter=hexagonPerimeter2;whiteSpace=wrap;html=1;fixedSize=1;verticalAlign=top;" parent="1" vertex="1">
          <mxGeometry x="1538" y="92" width="660" height="360" as="geometry" />
        </mxCell>
        <mxCell id="0eOz52TX7NUzQkUNuKNN-12" value="&lt;font style=&quot;font-size: 14px;&quot;&gt;Node_AI&lt;/font&gt;&lt;div&gt;&lt;font style=&quot;font-size: 14px;&quot;&gt;(Machine3)&lt;/font&gt;&lt;/div&gt;" style="shape=hexagon;perimeter=hexagonPerimeter2;whiteSpace=wrap;html=1;fixedSize=1;verticalAlign=top;" parent="1" vertex="1">
          <mxGeometry x="1132.5" y="92" width="383.5" height="360" as="geometry" />
        </mxCell>
        <mxCell id="0eOz52TX7NUzQkUNuKNN-11" value="&lt;font style=&quot;font-size: 14px;&quot;&gt;Node_Data_Storage&lt;/font&gt;&lt;div&gt;&lt;font style=&quot;font-size: 14px;&quot;&gt;(Machine2)&lt;/font&gt;&lt;/div&gt;" style="shape=hexagon;perimeter=hexagonPerimeter2;whiteSpace=wrap;html=1;fixedSize=1;verticalAlign=top;" parent="1" vertex="1">
          <mxGeometry x="536" y="92" width="580" height="360" as="geometry" />
        </mxCell>
        <mxCell id="0eOz52TX7NUzQkUNuKNN-10" value="&lt;font style=&quot;font-size: 14px;&quot;&gt;Node_Market_Data&lt;/font&gt;&lt;div&gt;&lt;font style=&quot;font-size: 14px;&quot;&gt;(Machine1)&lt;/font&gt;&lt;/div&gt;" style="shape=hexagon;perimeter=hexagonPerimeter2;whiteSpace=wrap;html=1;fixedSize=1;verticalAlign=top;" parent="1" vertex="1">
          <mxGeometry x="76" y="90" width="440" height="360" as="geometry" />
        </mxCell>
        <mxCell id="dCVFgs5_mv9TQaUdX4Qd-24" value="&lt;div&gt;&lt;br&gt;&lt;/div&gt;Metatrader Pod" style="ellipse;whiteSpace=wrap;html=1;aspect=fixed;verticalAlign=top;" parent="1" vertex="1">
          <mxGeometry x="226" y="195" width="235" height="235" as="geometry" />
        </mxCell>
        <mxCell id="dCVFgs5_mv9TQaUdX4Qd-23" value="&lt;div&gt;&lt;br&gt;&lt;/div&gt;Metatrader Pod" style="ellipse;whiteSpace=wrap;html=1;aspect=fixed;verticalAlign=top;" parent="1" vertex="1">
          <mxGeometry x="216" y="185" width="235" height="235" as="geometry" />
        </mxCell>
        <mxCell id="dCVFgs5_mv9TQaUdX4Qd-11" value="&lt;div&gt;&lt;br&gt;&lt;/div&gt;Metatrader Deployment&lt;br&gt;(Pod per ccy pair)" style="ellipse;whiteSpace=wrap;html=1;aspect=fixed;verticalAlign=top;" parent="1" vertex="1">
          <mxGeometry x="206" y="175" width="235" height="235" as="geometry" />
        </mxCell>
        <mxCell id="dCVFgs5_mv9TQaUdX4Qd-9" value="&lt;font style=&quot;font-size: 20px;&quot;&gt;My Computer&amp;nbsp; &amp;nbsp; &amp;nbsp; &amp;nbsp; &amp;nbsp; &amp;nbsp; &amp;nbsp;&lt;/font&gt;" style="shape=internalStorage;whiteSpace=wrap;html=1;backgroundOutline=1;verticalAlign=top;dx=20;dy=40;" parent="1" vertex="1">
          <mxGeometry x="168" y="540" width="2030" height="250" as="geometry" />
        </mxCell>
        <mxCell id="dCVFgs5_mv9TQaUdX4Qd-2" value="Log File Volume" style="shape=cylinder3;whiteSpace=wrap;html=1;boundedLbl=1;backgroundOutline=1;size=15;" parent="1" vertex="1">
          <mxGeometry x="357.25" y="230" width="60" height="80" as="geometry" />
        </mxCell>
        <mxCell id="dCVFgs5_mv9TQaUdX4Qd-6" value="MetaTrader Terminal&lt;div&gt;Container&lt;/div&gt;" style="verticalAlign=middle;align=center;spacingTop=8;spacingLeft=2;spacingRight=12;shape=cube;size=20;direction=south;fontStyle=4;html=1;whiteSpace=wrap;horizontal=1;" parent="1" vertex="1">
          <mxGeometry x="231" y="235" width="100" height="90" as="geometry" />
        </mxCell>
        <mxCell id="dCVFgs5_mv9TQaUdX4Qd-7" value="MQL4/MQL5 Script Volume" style="shape=cylinder3;whiteSpace=wrap;html=1;boundedLbl=1;backgroundOutline=1;size=15;" parent="1" vertex="1">
          <mxGeometry x="1305" y="690" width="90" height="80" as="geometry" />
        </mxCell>
        <mxCell id="dCVFgs5_mv9TQaUdX4Qd-8" value="&lt;div&gt;&lt;br&gt;&lt;/div&gt;Deployment1&lt;br&gt;Manifest" style="shape=note;whiteSpace=wrap;html=1;backgroundOutline=1;darkOpacity=0.05;" parent="1" vertex="1">
          <mxGeometry x="217" y="595" width="80" height="100" as="geometry" />
        </mxCell>
        <mxCell id="dCVFgs5_mv9TQaUdX4Qd-12" value="XYZ.XYZ.XYZ.XYZ" style="rounded=0;whiteSpace=wrap;html=1;" parent="1" vertex="1">
          <mxGeometry x="126" y="320" width="130" height="30" as="geometry" />
        </mxCell>
        <mxCell id="dCVFgs5_mv9TQaUdX4Qd-14" value="&lt;div&gt;&lt;br&gt;&lt;/div&gt;&lt;font style=&quot;&quot;&gt;&lt;div style=&quot;&quot;&gt;&lt;font style=&quot;font-size: 10px;&quot;&gt;&lt;br&gt;&lt;/font&gt;&lt;/div&gt;&lt;font style=&quot;font-size: 20px;&quot;&gt;Internet&lt;/font&gt;&lt;/font&gt;" style="ellipse;shape=cloud;whiteSpace=wrap;html=1;verticalAlign=top;" parent="1" vertex="1">
          <mxGeometry x="76" y="-160" width="255" height="160" as="geometry" />
        </mxCell>
        <mxCell id="dCVFgs5_mv9TQaUdX4Qd-15" value="Metatrader Server" style="shape=process;whiteSpace=wrap;html=1;backgroundOutline=1;" parent="1" vertex="1">
          <mxGeometry x="156" y="-80" width="100" height="40" as="geometry" />
        </mxCell>
        <mxCell id="dCVFgs5_mv9TQaUdX4Qd-17" value="&lt;font style=&quot;font-size: 9px;&quot;&gt;MQL4/MQL5 Script Volume&lt;/font&gt;" style="shape=cylinder3;whiteSpace=wrap;html=1;boundedLbl=1;backgroundOutline=1;size=15;dashed=1;dashPattern=1 4;" parent="1" vertex="1">
          <mxGeometry x="291.75" y="329" width="67.5" height="65" as="geometry" />
        </mxCell>
        <mxCell id="dCVFgs5_mv9TQaUdX4Qd-18" value="" style="endArrow=classic;startArrow=none;html=1;rounded=0;entryX=0.5;entryY=1;entryDx=0;entryDy=0;entryPerimeter=0;exitX=0;exitY=0.5;exitDx=0;exitDy=0;exitPerimeter=0;endFill=1;startFill=0;" parent="1" source="dCVFgs5_mv9TQaUdX4Qd-7" target="dCVFgs5_mv9TQaUdX4Qd-17" edge="1">
          <mxGeometry width="50" height="50" relative="1" as="geometry">
            <mxPoint x="426" y="440" as="sourcePoint" />
            <mxPoint x="476" y="390" as="targetPoint" />
            <Array as="points">
              <mxPoint x="324" y="730" />
            </Array>
          </mxGeometry>
        </mxCell>
        <mxCell id="dCVFgs5_mv9TQaUdX4Qd-20" value="" style="endArrow=classic;html=1;rounded=0;exitX=0;exitY=0;exitDx=0;exitDy=41.25;exitPerimeter=0;entryX=0;entryY=0;entryDx=90;entryDy=60;entryPerimeter=0;" parent="1" source="dCVFgs5_mv9TQaUdX4Qd-17" target="dCVFgs5_mv9TQaUdX4Qd-6" edge="1">
          <mxGeometry width="50" height="50" relative="1" as="geometry">
            <mxPoint x="506" y="250" as="sourcePoint" />
            <mxPoint x="556" y="200" as="targetPoint" />
            <Array as="points">
              <mxPoint x="271" y="370" />
            </Array>
          </mxGeometry>
        </mxCell>
        <mxCell id="dCVFgs5_mv9TQaUdX4Qd-21" value="&lt;div&gt;Deployment2 Manifest&lt;/div&gt;" style="shape=note;whiteSpace=wrap;html=1;backgroundOutline=1;darkOpacity=0.05;" parent="1" vertex="1">
          <mxGeometry x="729" y="594" width="80" height="100" as="geometry" />
        </mxCell>
        <mxCell id="dCVFgs5_mv9TQaUdX4Qd-13" value="&lt;div&gt;&lt;span style=&quot;background-color: rgb(255, 255, 255);&quot;&gt;&lt;br&gt;&lt;/span&gt;&lt;/div&gt;&lt;span style=&quot;background-color: rgb(255, 255, 255);&quot;&gt;&lt;div&gt;&lt;span style=&quot;background-color: rgb(255, 255, 255);&quot;&gt;&lt;br&gt;&lt;/span&gt;&lt;/div&gt;TICK DATA&lt;/span&gt;&lt;div&gt;&lt;span style=&quot;background-color: rgb(255, 255, 255);&quot;&gt;(over TCP)&lt;/span&gt;&lt;/div&gt;" style="shape=singleArrow;direction=south;whiteSpace=wrap;html=1;verticalAlign=middle;" parent="1" vertex="1">
          <mxGeometry x="156" y="-40" width="30" height="360" as="geometry" />
        </mxCell>
        <mxCell id="dCVFgs5_mv9TQaUdX4Qd-25" value="" style="endArrow=classic;html=1;rounded=0;exitX=0;exitY=0;exitDx=35;exitDy=0;exitPerimeter=0;entryX=0;entryY=0.5;entryDx=0;entryDy=0;entryPerimeter=0;" parent="1" source="dCVFgs5_mv9TQaUdX4Qd-6" target="dCVFgs5_mv9TQaUdX4Qd-2" edge="1">
          <mxGeometry width="50" height="50" relative="1" as="geometry">
            <mxPoint x="536" y="280" as="sourcePoint" />
            <mxPoint x="586" y="230" as="targetPoint" />
          </mxGeometry>
        </mxCell>
        <mxCell id="cqczyWWJDYa40t4_Xtqy-2" value="" style="group" parent="1" vertex="1" connectable="0">
          <mxGeometry x="566" y="175" width="255" height="255" as="geometry" />
        </mxCell>
        <mxCell id="dCVFgs5_mv9TQaUdX4Qd-27" value="&lt;div&gt;&lt;br&gt;&lt;/div&gt;Metatrader Pod" style="ellipse;whiteSpace=wrap;html=1;aspect=fixed;verticalAlign=top;" parent="cqczyWWJDYa40t4_Xtqy-2" vertex="1">
          <mxGeometry x="20" y="20" width="235" height="235" as="geometry" />
        </mxCell>
        <mxCell id="dCVFgs5_mv9TQaUdX4Qd-28" value="&lt;div&gt;&lt;br&gt;&lt;/div&gt;Metatrader Pod" style="ellipse;whiteSpace=wrap;html=1;aspect=fixed;verticalAlign=top;" parent="cqczyWWJDYa40t4_Xtqy-2" vertex="1">
          <mxGeometry x="10" y="10" width="235" height="235" as="geometry" />
        </mxCell>
        <mxCell id="dCVFgs5_mv9TQaUdX4Qd-29" value="&lt;div&gt;&lt;br&gt;&lt;/div&gt;&lt;div&gt;Kafka Deployment&lt;/div&gt;" style="ellipse;whiteSpace=wrap;html=1;aspect=fixed;verticalAlign=top;" parent="cqczyWWJDYa40t4_Xtqy-2" vertex="1">
          <mxGeometry width="235" height="235" as="geometry" />
        </mxCell>
        <mxCell id="cqczyWWJDYa40t4_Xtqy-10" value="Kafka&lt;div&gt;Container&lt;/div&gt;" style="verticalAlign=middle;align=center;spacingTop=8;spacingLeft=2;spacingRight=12;shape=cube;size=20;direction=south;fontStyle=4;html=1;whiteSpace=wrap;horizontal=1;" parent="cqczyWWJDYa40t4_Xtqy-2" vertex="1">
          <mxGeometry x="115" y="82.5" width="100" height="90" as="geometry" />
        </mxCell>
        <mxCell id="cqczyWWJDYa40t4_Xtqy-13" value="XYZ.XYZ.XYZ.XYZ" style="rounded=0;whiteSpace=wrap;html=1;" parent="cqczyWWJDYa40t4_Xtqy-2" vertex="1">
          <mxGeometry x="10" y="165" width="130" height="30" as="geometry" />
        </mxCell>
        <mxCell id="cqczyWWJDYa40t4_Xtqy-1" value="Log File Volume" style="shape=cylinder3;whiteSpace=wrap;html=1;boundedLbl=1;backgroundOutline=1;size=15;dashed=1;dashPattern=1 4;" parent="1" vertex="1">
          <mxGeometry x="596" y="230" width="60" height="80" as="geometry" />
        </mxCell>
        <mxCell id="cqczyWWJDYa40t4_Xtqy-11" value="" style="endArrow=classic;startArrow=none;html=1;rounded=0;exitX=1;exitY=0.5;exitDx=0;exitDy=0;exitPerimeter=0;entryX=0;entryY=0.5;entryDx=0;entryDy=0;entryPerimeter=0;endFill=1;startFill=0;" parent="1" source="dCVFgs5_mv9TQaUdX4Qd-2" target="cqczyWWJDYa40t4_Xtqy-1" edge="1">
          <mxGeometry width="50" height="50" relative="1" as="geometry">
            <mxPoint x="596" y="360" as="sourcePoint" />
            <mxPoint x="646" y="310" as="targetPoint" />
          </mxGeometry>
        </mxCell>
        <mxCell id="cqczyWWJDYa40t4_Xtqy-12" value="" style="endArrow=classic;html=1;rounded=0;exitX=1;exitY=0.5;exitDx=0;exitDy=0;exitPerimeter=0;entryX=0;entryY=0;entryDx=55;entryDy=100;entryPerimeter=0;" parent="1" source="cqczyWWJDYa40t4_Xtqy-1" target="cqczyWWJDYa40t4_Xtqy-10" edge="1">
          <mxGeometry width="50" height="50" relative="1" as="geometry">
            <mxPoint x="636" y="-20" as="sourcePoint" />
            <mxPoint x="686" y="-70" as="targetPoint" />
          </mxGeometry>
        </mxCell>
        <mxCell id="cqczyWWJDYa40t4_Xtqy-6" value="&lt;div&gt;&lt;br&gt;&lt;/div&gt;&lt;div&gt;MongoDB Deployment&lt;br&gt;(single pod)&lt;/div&gt;" style="ellipse;whiteSpace=wrap;html=1;aspect=fixed;verticalAlign=top;" parent="1" vertex="1">
          <mxGeometry x="846" y="170" width="235" height="235" as="geometry" />
        </mxCell>
        <mxCell id="dCVFgs5_mv9TQaUdX4Qd-3" value="DB Volume" style="shape=cylinder3;whiteSpace=wrap;html=1;boundedLbl=1;backgroundOutline=1;size=15;" parent="1" vertex="1">
          <mxGeometry x="996" y="232" width="60" height="80" as="geometry" />
        </mxCell>
        <mxCell id="cqczyWWJDYa40t4_Xtqy-7" value="MongoDB&lt;div&gt;Container&lt;/div&gt;" style="verticalAlign=middle;align=center;spacingTop=8;spacingLeft=2;spacingRight=12;shape=cube;size=20;direction=south;fontStyle=4;html=1;whiteSpace=wrap;horizontal=1;" parent="1" vertex="1">
          <mxGeometry x="876" y="237" width="100" height="90" as="geometry" />
        </mxCell>
        <mxCell id="cqczyWWJDYa40t4_Xtqy-14" value="XYZ.XYZ.XYZ.XYZ" style="rounded=0;whiteSpace=wrap;html=1;" parent="1" vertex="1">
          <mxGeometry x="826" y="325" width="130" height="30" as="geometry" />
        </mxCell>
        <mxCell id="cqczyWWJDYa40t4_Xtqy-15" value="" style="endArrow=classic;html=1;rounded=0;exitX=0;exitY=0;exitDx=35;exitDy=0;exitPerimeter=0;entryX=0;entryY=0;entryDx=55;entryDy=100;entryPerimeter=0;" parent="1" source="cqczyWWJDYa40t4_Xtqy-10" target="cqczyWWJDYa40t4_Xtqy-7" edge="1">
          <mxGeometry width="50" height="50" relative="1" as="geometry">
            <mxPoint x="786" y="300" as="sourcePoint" />
            <mxPoint x="836" y="250" as="targetPoint" />
          </mxGeometry>
        </mxCell>
        <mxCell id="cqczyWWJDYa40t4_Xtqy-16" value="" style="endArrow=classic;html=1;rounded=0;exitX=0;exitY=0;exitDx=35;exitDy=0;exitPerimeter=0;entryX=0;entryY=0.5;entryDx=0;entryDy=0;entryPerimeter=0;" parent="1" source="cqczyWWJDYa40t4_Xtqy-7" target="dCVFgs5_mv9TQaUdX4Qd-3" edge="1">
          <mxGeometry width="50" height="50" relative="1" as="geometry">
            <mxPoint x="986" y="270" as="sourcePoint" />
            <mxPoint x="1036" y="220" as="targetPoint" />
          </mxGeometry>
        </mxCell>
        <mxCell id="RKrRcoA8sQYH1m_t-1Mb-1" value="" style="endArrow=classic;html=1;rounded=0;exitX=0;exitY=0;exitDx=25;exitDy=0;exitPerimeter=0;entryX=0.375;entryY=1;entryDx=0;entryDy=0;" parent="1" source="dCVFgs5_mv9TQaUdX4Qd-8" target="0eOz52TX7NUzQkUNuKNN-10" edge="1">
          <mxGeometry width="50" height="50" relative="1" as="geometry">
            <mxPoint x="206" y="510" as="sourcePoint" />
            <mxPoint x="208" y="452.87999999999965" as="targetPoint" />
          </mxGeometry>
        </mxCell>
        <mxCell id="RKrRcoA8sQYH1m_t-1Mb-2" value="" style="endArrow=classic;html=1;rounded=0;exitX=0;exitY=0;exitDx=25;exitDy=0;exitPerimeter=0;entryX=0.375;entryY=1;entryDx=0;entryDy=0;" parent="1" source="dCVFgs5_mv9TQaUdX4Qd-21" target="0eOz52TX7NUzQkUNuKNN-11" edge="1">
          <mxGeometry width="50" height="50" relative="1" as="geometry">
            <mxPoint x="586" y="510" as="sourcePoint" />
            <mxPoint x="678.5" y="450" as="targetPoint" />
          </mxGeometry>
        </mxCell>
        <mxCell id="RKrRcoA8sQYH1m_t-1Mb-3" value="&lt;div&gt;Deployment3 Manifest&lt;/div&gt;" style="shape=note;whiteSpace=wrap;html=1;backgroundOutline=1;darkOpacity=0.05;" parent="1" vertex="1">
          <mxGeometry x="1193" y="596" width="80" height="100" as="geometry" />
        </mxCell>
        <mxCell id="RKrRcoA8sQYH1m_t-1Mb-7" value="Tensorflow Script Volume" style="shape=cylinder3;whiteSpace=wrap;html=1;boundedLbl=1;backgroundOutline=1;size=15;" parent="1" vertex="1">
          <mxGeometry x="1302" y="596" width="90" height="80" as="geometry" />
        </mxCell>
        <mxCell id="RKrRcoA8sQYH1m_t-1Mb-8" value="&lt;div&gt;Tensorflow Weight Files&lt;/div&gt;" style="shape=note;whiteSpace=wrap;html=1;backgroundOutline=1;darkOpacity=0.05;" parent="1" vertex="1">
          <mxGeometry x="1410.5" y="601" width="80" height="100" as="geometry" />
        </mxCell>
        <mxCell id="RKrRcoA8sQYH1m_t-1Mb-10" value="&lt;div&gt;&lt;br&gt;&lt;/div&gt;Metatrader Pod" style="ellipse;whiteSpace=wrap;html=1;aspect=fixed;verticalAlign=top;" parent="1" vertex="1">
          <mxGeometry x="1235" y="190" width="235" height="235" as="geometry" />
        </mxCell>
        <mxCell id="RKrRcoA8sQYH1m_t-1Mb-11" value="&lt;div&gt;&lt;br&gt;&lt;/div&gt;Metatrader Pod" style="ellipse;whiteSpace=wrap;html=1;aspect=fixed;verticalAlign=top;" parent="1" vertex="1">
          <mxGeometry x="1225" y="180" width="235" height="235" as="geometry" />
        </mxCell>
        <mxCell id="RKrRcoA8sQYH1m_t-1Mb-12" value="Tensorflow&amp;nbsp;&lt;div&gt;Training Deployment&lt;br&gt;(multipod)&lt;/div&gt;" style="ellipse;whiteSpace=wrap;html=1;aspect=fixed;verticalAlign=top;" parent="1" vertex="1">
          <mxGeometry x="1215" y="170" width="235" height="235" as="geometry" />
        </mxCell>
        <mxCell id="RKrRcoA8sQYH1m_t-1Mb-13" value="Tensorflow Container" style="verticalAlign=middle;align=center;spacingTop=8;spacingLeft=2;spacingRight=12;shape=cube;size=20;direction=south;fontStyle=4;html=1;whiteSpace=wrap;horizontal=1;" parent="1" vertex="1">
          <mxGeometry x="1308.5" y="218" width="100" height="90" as="geometry" />
        </mxCell>
        <mxCell id="RKrRcoA8sQYH1m_t-1Mb-14" value="XYZ.XYZ.XYZ.XYZ" style="rounded=0;whiteSpace=wrap;html=1;" parent="1" vertex="1">
          <mxGeometry x="1160" y="327" width="130" height="30" as="geometry" />
        </mxCell>
        <mxCell id="RKrRcoA8sQYH1m_t-1Mb-15" value="DB Volume" style="shape=cylinder3;whiteSpace=wrap;html=1;boundedLbl=1;backgroundOutline=1;size=15;dashed=1;dashPattern=1 4;" parent="1" vertex="1">
          <mxGeometry x="1230" y="232" width="60" height="80" as="geometry" />
        </mxCell>
        <mxCell id="RKrRcoA8sQYH1m_t-1Mb-16" value="Tensorflow Script Volume" style="shape=cylinder3;whiteSpace=wrap;html=1;boundedLbl=1;backgroundOutline=1;size=15;dashed=1;dashPattern=1 4;" parent="1" vertex="1">
          <mxGeometry x="1305" y="322" width="85.5" height="68" as="geometry" />
        </mxCell>
        <mxCell id="RKrRcoA8sQYH1m_t-1Mb-18" value="" style="endArrow=classic;html=1;rounded=0;exitX=1;exitY=0.5;exitDx=0;exitDy=0;exitPerimeter=0;entryX=0;entryY=0.5;entryDx=0;entryDy=0;entryPerimeter=0;" parent="1" source="dCVFgs5_mv9TQaUdX4Qd-3" target="RKrRcoA8sQYH1m_t-1Mb-15" edge="1">
          <mxGeometry width="50" height="50" relative="1" as="geometry">
            <mxPoint x="1096" y="360" as="sourcePoint" />
            <mxPoint x="1146" y="310" as="targetPoint" />
          </mxGeometry>
        </mxCell>
        <mxCell id="RKrRcoA8sQYH1m_t-1Mb-19" value="" style="endArrow=classic;html=1;rounded=0;exitX=0.5;exitY=0;exitDx=0;exitDy=0;exitPerimeter=0;entryX=0.5;entryY=1;entryDx=0;entryDy=0;entryPerimeter=0;" parent="1" source="RKrRcoA8sQYH1m_t-1Mb-7" target="RKrRcoA8sQYH1m_t-1Mb-16" edge="1">
          <mxGeometry width="50" height="50" relative="1" as="geometry">
            <mxPoint x="1295" y="500" as="sourcePoint" />
            <mxPoint x="1345" y="450" as="targetPoint" />
          </mxGeometry>
        </mxCell>
        <mxCell id="RKrRcoA8sQYH1m_t-1Mb-20" value="" style="endArrow=classic;html=1;rounded=0;exitX=1;exitY=0.5;exitDx=0;exitDy=0;exitPerimeter=0;entryX=0;entryY=0;entryDx=55;entryDy=100;entryPerimeter=0;" parent="1" source="RKrRcoA8sQYH1m_t-1Mb-15" target="RKrRcoA8sQYH1m_t-1Mb-13" edge="1">
          <mxGeometry width="50" height="50" relative="1" as="geometry">
            <mxPoint x="1295" y="20" as="sourcePoint" />
            <mxPoint x="1345" y="-30" as="targetPoint" />
          </mxGeometry>
        </mxCell>
        <mxCell id="RKrRcoA8sQYH1m_t-1Mb-21" value="" style="endArrow=classic;html=1;rounded=0;exitX=0.5;exitY=0;exitDx=0;exitDy=0;exitPerimeter=0;entryX=0;entryY=0;entryDx=90;entryDy=60;entryPerimeter=0;" parent="1" source="RKrRcoA8sQYH1m_t-1Mb-16" target="RKrRcoA8sQYH1m_t-1Mb-13" edge="1">
          <mxGeometry width="50" height="50" relative="1" as="geometry">
            <mxPoint x="1415" y="60" as="sourcePoint" />
            <mxPoint x="1465" y="10" as="targetPoint" />
          </mxGeometry>
        </mxCell>
        <mxCell id="RKrRcoA8sQYH1m_t-1Mb-22" value="" style="endArrow=classic;html=1;rounded=0;exitX=0;exitY=0;exitDx=35;exitDy=0;exitPerimeter=0;entryX=0;entryY=0;entryDx=25;entryDy=0;entryPerimeter=0;" parent="1" source="RKrRcoA8sQYH1m_t-1Mb-13" target="RKrRcoA8sQYH1m_t-1Mb-8" edge="1">
          <mxGeometry width="50" height="50" relative="1" as="geometry">
            <mxPoint x="1566" y="270" as="sourcePoint" />
            <mxPoint x="1616" y="220" as="targetPoint" />
            <Array as="points">
              <mxPoint x="1434" y="252" />
            </Array>
          </mxGeometry>
        </mxCell>
        <mxCell id="RKrRcoA8sQYH1m_t-1Mb-24" value="" style="endArrow=classic;html=1;rounded=0;exitX=0;exitY=0;exitDx=25;exitDy=0;exitPerimeter=0;" parent="1" source="RKrRcoA8sQYH1m_t-1Mb-3" edge="1">
          <mxGeometry width="50" height="50" relative="1" as="geometry">
            <mxPoint x="1176" y="560" as="sourcePoint" />
            <mxPoint x="1219" y="450" as="targetPoint" />
          </mxGeometry>
        </mxCell>
        <mxCell id="RKrRcoA8sQYH1m_t-1Mb-25" value="Tensorflow&lt;div&gt;Execution Deployment&lt;/div&gt;&lt;div&gt;(single pod)&lt;/div&gt;" style="ellipse;whiteSpace=wrap;html=1;aspect=fixed;verticalAlign=top;" parent="1" vertex="1">
          <mxGeometry x="1556" y="164.5" width="235" height="235" as="geometry" />
        </mxCell>
        <mxCell id="RKrRcoA8sQYH1m_t-1Mb-26" value="Tensorflow Container" style="verticalAlign=middle;align=center;spacingTop=8;spacingLeft=2;spacingRight=12;shape=cube;size=20;direction=south;fontStyle=4;html=1;whiteSpace=wrap;horizontal=1;" parent="1" vertex="1">
          <mxGeometry x="1573" y="237" width="100" height="90" as="geometry" />
        </mxCell>
        <mxCell id="RKrRcoA8sQYH1m_t-1Mb-27" value="&lt;div&gt;&lt;span style=&quot;background-color: initial;&quot;&gt;&lt;font style=&quot;font-size: 4px;&quot;&gt;&amp;nbsp;&lt;font style=&quot;&quot;&gt;&amp;nbsp;&lt;/font&gt;&lt;/font&gt;&lt;/span&gt;&lt;/div&gt;&lt;div&gt;&lt;span style=&quot;background-color: initial;&quot;&gt;Metatrader Deployment&lt;/span&gt;&lt;/div&gt;&lt;div&gt;(single pod)&lt;/div&gt;" style="ellipse;whiteSpace=wrap;html=1;aspect=fixed;verticalAlign=top;" parent="1" vertex="1">
          <mxGeometry x="1846" y="164.5" width="235" height="235" as="geometry" />
        </mxCell>
        <mxCell id="RKrRcoA8sQYH1m_t-1Mb-28" value="MetaTrader Terminal&lt;div&gt;Container&lt;/div&gt;" style="verticalAlign=middle;align=center;spacingTop=8;spacingLeft=2;spacingRight=12;shape=cube;size=20;direction=south;fontStyle=4;html=1;whiteSpace=wrap;horizontal=1;" parent="1" vertex="1">
          <mxGeometry x="1947.5" y="215" width="100" height="90" as="geometry" />
        </mxCell>
        <mxCell id="RKrRcoA8sQYH1m_t-1Mb-29" value="&lt;font style=&quot;font-size: 9px;&quot;&gt;MQL4/MQL5 Script Volume&lt;/font&gt;" style="shape=cylinder3;whiteSpace=wrap;html=1;boundedLbl=1;backgroundOutline=1;size=15;dashed=1;dashPattern=1 4;" parent="1" vertex="1">
          <mxGeometry x="1954" y="319" width="67.5" height="65" as="geometry" />
        </mxCell>
        <mxCell id="RKrRcoA8sQYH1m_t-1Mb-31" value="" style="endArrow=classic;html=1;rounded=0;exitX=0;exitY=0;exitDx=80;exitDy=65;exitPerimeter=0;entryX=0;entryY=0;entryDx=90;entryDy=60;entryPerimeter=0;" parent="1" source="RKrRcoA8sQYH1m_t-1Mb-8" target="RKrRcoA8sQYH1m_t-1Mb-26" edge="1">
          <mxGeometry width="50" height="50" relative="1" as="geometry">
            <mxPoint x="1496" y="500" as="sourcePoint" />
            <mxPoint x="1596" y="470" as="targetPoint" />
            <Array as="points">
              <mxPoint x="1613" y="666" />
            </Array>
          </mxGeometry>
        </mxCell>
        <mxCell id="RKrRcoA8sQYH1m_t-1Mb-33" value="&lt;font style=&quot;font-size: 9px;&quot;&gt;Current State Log Volume&lt;/font&gt;" style="shape=cylinder3;whiteSpace=wrap;html=1;boundedLbl=1;backgroundOutline=1;size=15;" parent="1" vertex="1">
          <mxGeometry x="1865" y="237.5" width="67.5" height="65" as="geometry" />
        </mxCell>
        <mxCell id="RKrRcoA8sQYH1m_t-1Mb-34" value="&lt;font style=&quot;font-size: 9px;&quot;&gt;Current State Log Volume&lt;/font&gt;" style="shape=cylinder3;whiteSpace=wrap;html=1;boundedLbl=1;backgroundOutline=1;size=15;dashed=1;dashPattern=1 4;" parent="1" vertex="1">
          <mxGeometry x="1705" y="239" width="67.5" height="65" as="geometry" />
        </mxCell>
        <mxCell id="RKrRcoA8sQYH1m_t-1Mb-35" value="" style="endArrow=classic;html=1;rounded=0;exitX=0;exitY=0;exitDx=55;exitDy=100;exitPerimeter=0;entryX=1;entryY=0.5;entryDx=0;entryDy=0;entryPerimeter=0;" parent="1" source="RKrRcoA8sQYH1m_t-1Mb-28" target="RKrRcoA8sQYH1m_t-1Mb-33" edge="1">
          <mxGeometry width="50" height="50" relative="1" as="geometry">
            <mxPoint x="1956" y="-50" as="sourcePoint" />
            <mxPoint x="2006" y="-100" as="targetPoint" />
          </mxGeometry>
        </mxCell>
        <mxCell id="RKrRcoA8sQYH1m_t-1Mb-36" value="" style="endArrow=classic;html=1;rounded=0;exitX=0;exitY=0.5;exitDx=0;exitDy=0;exitPerimeter=0;entryX=1;entryY=0.5;entryDx=0;entryDy=0;entryPerimeter=0;" parent="1" source="RKrRcoA8sQYH1m_t-1Mb-33" target="RKrRcoA8sQYH1m_t-1Mb-34" edge="1">
          <mxGeometry width="50" height="50" relative="1" as="geometry">
            <mxPoint x="1776" y="10" as="sourcePoint" />
            <mxPoint x="1826" y="-40" as="targetPoint" />
          </mxGeometry>
        </mxCell>
        <mxCell id="RKrRcoA8sQYH1m_t-1Mb-37" value="" style="endArrow=classic;html=1;rounded=0;exitX=0;exitY=0.5;exitDx=0;exitDy=0;exitPerimeter=0;entryX=0;entryY=0;entryDx=35;entryDy=0;entryPerimeter=0;" parent="1" source="RKrRcoA8sQYH1m_t-1Mb-34" target="RKrRcoA8sQYH1m_t-1Mb-26" edge="1">
          <mxGeometry width="50" height="50" relative="1" as="geometry">
            <mxPoint x="1716" y="20" as="sourcePoint" />
            <mxPoint x="1766" y="-30" as="targetPoint" />
          </mxGeometry>
        </mxCell>
        <mxCell id="0eOz52TX7NUzQkUNuKNN-1" value="" style="endArrow=classic;html=1;rounded=0;exitX=0;exitY=0;exitDx=90;exitDy=20;exitPerimeter=0;entryX=1;entryY=0;entryDx=0;entryDy=27.5;entryPerimeter=0;" parent="1" source="RKrRcoA8sQYH1m_t-1Mb-26" target="dCVFgs5_mv9TQaUdX4Qd-7" edge="1">
          <mxGeometry width="50" height="50" relative="1" as="geometry">
            <mxPoint x="1696" y="510" as="sourcePoint" />
            <mxPoint x="1746" y="460" as="targetPoint" />
            <Array as="points">
              <mxPoint x="1653" y="717" />
            </Array>
          </mxGeometry>
        </mxCell>
        <mxCell id="0eOz52TX7NUzQkUNuKNN-2" value="" style="endArrow=classic;html=1;rounded=0;exitX=1;exitY=0;exitDx=0;exitDy=52.5;exitPerimeter=0;entryX=0.5;entryY=1;entryDx=0;entryDy=0;entryPerimeter=0;" parent="1" source="dCVFgs5_mv9TQaUdX4Qd-7" target="RKrRcoA8sQYH1m_t-1Mb-29" edge="1">
          <mxGeometry width="50" height="50" relative="1" as="geometry">
            <mxPoint x="1476" y="780" as="sourcePoint" />
            <mxPoint x="1526" y="730" as="targetPoint" />
            <Array as="points">
              <mxPoint x="1988" y="742" />
            </Array>
          </mxGeometry>
        </mxCell>
        <mxCell id="0eOz52TX7NUzQkUNuKNN-3" value="" style="endArrow=classic;html=1;rounded=0;exitX=0.5;exitY=0;exitDx=0;exitDy=0;exitPerimeter=0;entryX=0;entryY=0;entryDx=90;entryDy=60;entryPerimeter=0;" parent="1" source="RKrRcoA8sQYH1m_t-1Mb-29" target="RKrRcoA8sQYH1m_t-1Mb-28" edge="1">
          <mxGeometry width="50" height="50" relative="1" as="geometry">
            <mxPoint x="2146" y="350" as="sourcePoint" />
            <mxPoint x="2196" y="300" as="targetPoint" />
          </mxGeometry>
        </mxCell>
        <mxCell id="0eOz52TX7NUzQkUNuKNN-4" value="XYZ.XYZ.XYZ.XYZ" style="rounded=0;whiteSpace=wrap;html=1;" parent="1" vertex="1">
          <mxGeometry x="1676" y="327" width="130" height="30" as="geometry" />
        </mxCell>
        <mxCell id="0eOz52TX7NUzQkUNuKNN-5" value="XYZ.XYZ.XYZ.XYZ" style="rounded=0;whiteSpace=wrap;html=1;" parent="1" vertex="1">
          <mxGeometry x="2036" y="300" width="130" height="30" as="geometry" />
        </mxCell>
        <mxCell id="0eOz52TX7NUzQkUNuKNN-18" value="&lt;div&gt;&lt;br&gt;&lt;/div&gt;&lt;font style=&quot;&quot;&gt;&lt;div style=&quot;&quot;&gt;&lt;font style=&quot;font-size: 10px;&quot;&gt;&lt;br&gt;&lt;/font&gt;&lt;/div&gt;&lt;font style=&quot;font-size: 20px;&quot;&gt;Internet&lt;/font&gt;&lt;/font&gt;" style="ellipse;shape=cloud;whiteSpace=wrap;html=1;verticalAlign=top;" parent="1" vertex="1">
          <mxGeometry x="1977.5" y="-160" width="255" height="160" as="geometry" />
        </mxCell>
        <mxCell id="0eOz52TX7NUzQkUNuKNN-19" value="Metatrader Server" style="shape=process;whiteSpace=wrap;html=1;backgroundOutline=1;" parent="1" vertex="1">
          <mxGeometry x="2057.5" y="-80" width="100" height="40" as="geometry" />
        </mxCell>
        <mxCell id="0eOz52TX7NUzQkUNuKNN-22" value="" style="shape=flexArrow;endArrow=classic;html=1;rounded=0;exitX=0.75;exitY=0;exitDx=0;exitDy=0;entryX=0.75;entryY=1;entryDx=0;entryDy=0;" parent="1" source="0eOz52TX7NUzQkUNuKNN-5" target="0eOz52TX7NUzQkUNuKNN-19" edge="1">
          <mxGeometry width="50" height="50" relative="1" as="geometry">
            <mxPoint x="2096" y="-200" as="sourcePoint" />
            <mxPoint x="2146" y="-250" as="targetPoint" />
          </mxGeometry>
        </mxCell>
        <mxCell id="0eOz52TX7NUzQkUNuKNN-23" value="ORDER&amp;nbsp;&lt;div&gt;DATA&lt;/div&gt;&lt;div&gt;(over TCP)&lt;/div&gt;" style="edgeLabel;html=1;align=center;verticalAlign=middle;resizable=0;points=[];" parent="0eOz52TX7NUzQkUNuKNN-22" vertex="1" connectable="0">
          <mxGeometry x="-0.5136" y="-2" relative="1" as="geometry">
            <mxPoint y="-67" as="offset" />
          </mxGeometry>
        </mxCell>
        <mxCell id="0eOz52TX7NUzQkUNuKNN-24" value="&lt;div&gt;Deplyment4 Manifest&lt;/div&gt;" style="shape=note;whiteSpace=wrap;html=1;backgroundOutline=1;darkOpacity=0.05;" parent="1" vertex="1">
          <mxGeometry x="1760" y="594" width="80" height="100" as="geometry" />
        </mxCell>
        <mxCell id="0eOz52TX7NUzQkUNuKNN-25" value="" style="endArrow=classic;html=1;rounded=0;exitX=0;exitY=0;exitDx=25;exitDy=0;exitPerimeter=0;entryX=0.375;entryY=1;entryDx=0;entryDy=0;" parent="1" source="0eOz52TX7NUzQkUNuKNN-24" target="0eOz52TX7NUzQkUNuKNN-13" edge="1">
          <mxGeometry width="50" height="50" relative="1" as="geometry">
            <mxPoint x="1830" y="586" as="sourcePoint" />
            <mxPoint x="1831" y="440" as="targetPoint" />
          </mxGeometry>
        </mxCell>
        <mxCell id="0eOz52TX7NUzQkUNuKNN-26" value="Log File Volume" style="shape=cylinder3;whiteSpace=wrap;html=1;boundedLbl=1;backgroundOutline=1;size=15;dashed=1;dashPattern=1 4;" parent="1" vertex="1">
          <mxGeometry x="355.25" y="625" width="60" height="80" as="geometry" />
        </mxCell>
        <mxCell id="0eOz52TX7NUzQkUNuKNN-27" value="" style="endArrow=classic;html=1;rounded=0;exitX=0.5;exitY=1;exitDx=0;exitDy=0;exitPerimeter=0;entryX=0.5;entryY=0;entryDx=0;entryDy=0;entryPerimeter=0;" parent="1" source="dCVFgs5_mv9TQaUdX4Qd-2" target="0eOz52TX7NUzQkUNuKNN-26" edge="1">
          <mxGeometry width="50" height="50" relative="1" as="geometry">
            <mxPoint x="570" y="-120" as="sourcePoint" />
            <mxPoint x="620" y="-170" as="targetPoint" />
          </mxGeometry>
        </mxCell>
        <mxCell id="0eOz52TX7NUzQkUNuKNN-28" value="&lt;span style=&quot;font-weight: normal;&quot;&gt;&lt;font style=&quot;font-size: 10px;&quot;&gt;File Viewer&lt;/font&gt;&lt;/span&gt;" style="swimlane;horizontal=0;whiteSpace=wrap;html=1;startSize=14;rotation=90;" parent="1" vertex="1">
          <mxGeometry x="323.5" y="602.5" width="129" height="110" as="geometry" />
        </mxCell>
        <mxCell id="0eOz52TX7NUzQkUNuKNN-30" value="&lt;span style=&quot;font-weight: normal;&quot;&gt;&lt;font style=&quot;font-size: 10px;&quot;&gt;Kafka CLI&lt;/font&gt;&lt;/span&gt;" style="swimlane;horizontal=0;whiteSpace=wrap;html=1;startSize=14;rotation=90;" parent="1" vertex="1">
          <mxGeometry x="618.75" y="555.75" width="38.5" height="110" as="geometry" />
        </mxCell>
        <mxCell id="0eOz52TX7NUzQkUNuKNN-31" value="" style="endArrow=classic;html=1;rounded=0;entryX=0.5;entryY=1;entryDx=0;entryDy=0;exitX=0;exitY=0.5;exitDx=0;exitDy=0;" parent="1" source="0eOz52TX7NUzQkUNuKNN-30" target="cqczyWWJDYa40t4_Xtqy-13" edge="1">
          <mxGeometry width="50" height="50" relative="1" as="geometry">
            <mxPoint x="550" y="450" as="sourcePoint" />
            <mxPoint x="600" y="400" as="targetPoint" />
          </mxGeometry>
        </mxCell>
        <mxCell id="0eOz52TX7NUzQkUNuKNN-32" value="&lt;span style=&quot;font-weight: normal;&quot;&gt;&lt;font style=&quot;font-size: 10px;&quot;&gt;Mongo CLI&lt;/font&gt;&lt;/span&gt;" style="swimlane;horizontal=0;whiteSpace=wrap;html=1;startSize=14;rotation=90;" parent="1" vertex="1">
          <mxGeometry x="872" y="555.75" width="38.5" height="110" as="geometry" />
        </mxCell>
        <mxCell id="0eOz52TX7NUzQkUNuKNN-33" value="" style="endArrow=classic;html=1;rounded=0;entryX=0.5;entryY=1;entryDx=0;entryDy=0;exitX=0;exitY=0.5;exitDx=0;exitDy=0;" parent="1" source="0eOz52TX7NUzQkUNuKNN-32" target="cqczyWWJDYa40t4_Xtqy-14" edge="1">
          <mxGeometry width="50" height="50" relative="1" as="geometry">
            <mxPoint x="889.5" y="594" as="sourcePoint" />
            <mxPoint x="892.5" y="372" as="targetPoint" />
          </mxGeometry>
        </mxCell>
      </root>
    </mxGraphModel>
  </diagram>
</mxfile>
